# xmcd
#
# Track frame offsets: 
#        150
#        20200
#        37527
#        53290
#        74105
#        96332
#        118810
#        142690
#        159960
#        180927
#        199830
#        213935
#
# Disc length: 3100 seconds
#
# Revision: 0
# Processed by: cddbd v1.5.2PL0 Copyright (c) Steve Scherf et al.
# Submitted via: ExactAudioCopyFreeDBPlugin 1.0
#
DISCID=9a0c1a0c
DTITLE=Jean-Jacques Milteau - Merci d'être venus (Playback)
DYEAR=1996
DGENRE=Blues
TTITLE0=Sarbacane
TTITLE1=Bille de verre
TTITLE2=Et bailler, et dormir
TTITLE3=Lonely Crowd
TTITLE4=J'irai quand même
TTITLE5=Lèche-botte Blues
TTITLE6=Quand j'rentre le soir
TTITLE7=Beale Street
TTITLE8=Les fourmis rouges
TTITLE9=Les Don Juan
TTITLE10=Big Walter
TTITLE11=Willie et Leadbelly
EXTD=
EXTT0=
EXTT1=
EXTT2=
EXTT3=
EXTT4=
EXTT5=
EXTT6=
EXTT7=
EXTT8=
EXTT9=
EXTT10=
EXTT11=
PLAYORDER=
